<?xml version="1.0" encoding="iso-8859-1"?>
<!-- Generator: Adobe Illustrator 18.1.1, SVG Export Plug-In . SVG Version: 6.00 Build 0)  -->
<svg version="1.1" id="Capa_1" xmlns="http://www.w3.org/2000/svg" xmlns:xlink="http://www.w3.org/1999/xlink" x="0px" y="0px"
	 viewBox="0 0 42.845 42.845" style="enable-background:new 0 0 42.845 42.845;" xml:space="preserve">
<g>
	<g>
		<path style="fill:#010002;" d="M35.833,36.716c-0.531-0.223-1.043-0.352-1.476-0.395c-0.127-1.938-1.16-4.416-1.16-6.017
			c0-4.614,0-13.843,0-18.457c0-1.94-0.478-5.814-1.5-7.889c0.375-0.203,0.76-0.484,1.119-0.843c1.066-1.065,1.5-2.359,0.97-2.889
			s-1.824-0.096-2.89,0.969c-0.438,0.437-0.761,0.91-0.963,1.355c-1.802-0.335-5.007-0.014-7.212-0.014h-4.365
			c-2.666,0-5.994-0.726-7.906,0.64C10.3,2.85,10.099,2.504,9.841,2.159C9.038,1.087,8.054,0.467,7.643,0.775
			C7.232,1.083,7.551,2.201,8.354,3.273c0.35,0.468,0.733,0.842,1.09,1.098C8.45,6.227,7.881,9.926,7.881,11.848
			c0,4.614,0,13.844,0,18.457c0,1.695-0.85,4.127-0.888,6.085c-0.327,0.069-0.679,0.175-1.04,0.327
			c-1.235,0.52-2.074,1.324-1.875,1.797c0.197,0.469,1.359,0.432,2.594-0.088c0.218-0.092,0.418-0.193,0.607-0.3
			c0.14,0.31,0.332,0.584,0.601,0.81c1.968,1.649,7.934,0.678,10.476,0.678h4.365c2.789,0,8.989,0.875,11.009-1.066
			c0.188-0.182,0.321-0.398,0.422-0.635c0.276,0.185,0.599,0.363,0.959,0.515c1.235,0.521,2.397,0.558,2.597,0.085
			C37.906,38.04,37.068,37.235,35.833,36.716z M14.29,26.235c-0.014,0-0.027,0-0.041,0c-0.055-0.004-0.107-0.02-0.16-0.037
			c-0.447-0.148-0.817-0.785-1.073-1.743c-0.071-0.269-0.134-0.56-0.186-0.875c-0.046-0.276-0.085-0.565-0.115-0.871
			c-0.088-0.899-0.105-1.92-0.035-2.997c0.228-3.486,1.28-6.264,2.363-6.264c0.014,0,0.027,0,0.041,0.001
			c0.872,0.057,1.493,1.918,1.596,4.452c0.009,0.221,0.014,0.445,0.015,0.676c0.001,0.229-0.002,0.461-0.009,0.698
			c-0.007,0.229-0.018,0.461-0.033,0.697c-0.19,2.906-0.953,5.312-1.829,6.036C14.649,26.153,14.47,26.235,14.29,26.235z
			 M16.607,25.073c0.597-1.408,0.931-3.297,1.045-5.036c0.032-0.51,0.048-1.087,0.037-1.69c1.898-1.656,3.737-2.681,4.805-2.681
			c0.294,0,0.529,0.077,0.691,0.239c0.648,0.648-0.061,2.469-1.625,4.512c-0.527,0.687-1.15,1.4-1.851,2.102
			c-0.933,0.934-1.881,1.717-2.767,2.329C16.829,24.926,16.718,25.001,16.607,25.073z M24.395,23.944
			c-2.803,1.358-5.45,1.953-6.703,1.601c0.971-0.692,1.919-1.513,2.725-2.319c0.961-0.961,2.121-2.318,2.946-3.684
			c3.187-1.379,5.994-1.715,6.482-0.707C30.38,19.937,27.94,22.224,24.395,23.944z"/>
		<ellipse style="fill:#010002;" cx="7.565" cy="40.38" rx="1.062" ry="0.48"/>
		<ellipse style="fill:#010002;" cx="38.798" cy="39.417" rx="1.062" ry="0.48"/>
		<ellipse style="fill:#010002;" cx="34.253" cy="42.364" rx="1.062" ry="0.481"/>
		<ellipse style="fill:#010002;" cx="30.982" cy="40.861" rx="1.063" ry="0.481"/>
		<ellipse style="fill:#010002;" cx="34.253" cy="40.38" rx="1.062" ry="0.48"/>
		<ellipse style="fill:#010002;" cx="4.048" cy="40.38" rx="1.062" ry="0.48"/>
	</g>
</g>
<g>
</g>
<g>
</g>
<g>
</g>
<g>
</g>
<g>
</g>
<g>
</g>
<g>
</g>
<g>
</g>
<g>
</g>
<g>
</g>
<g>
</g>
<g>
</g>
<g>
</g>
<g>
</g>
<g>
</g>
</svg>
