<?xml version="1.0" encoding="iso-8859-1"?>
<!-- Generator: Adobe Illustrator 18.1.1, SVG Export Plug-In . SVG Version: 6.00 Build 0)  -->
<svg version="1.1" id="Capa_1" xmlns="http://www.w3.org/2000/svg" xmlns:xlink="http://www.w3.org/1999/xlink" x="0px" y="0px"
	 viewBox="0 0 612 612" style="enable-background:new 0 0 612 612;" xml:space="preserve">
<g>
	<g>
		<path d="M605.33,161.449l-103.575-61.076c-2.515-1.598-5.202-2.442-7.781-2.442c-6.354,0-11.088,4.787-11.822,11.93l-8.15,56.552
			l-0.034,0.288c-0.788,8.384,4.137,18.53,11.209,23.096l4.588,2.964l-63.054,101.11l-16.724-160.044
			c-1.726-14.318-14.862-25.965-29.284-25.965H151.46c-14.599,0-27.19,11.856-28.072,26.476l-0.979,18.738
			c-8.209-3.335-17.029-5.061-26.255-5.061c-24.509,0-48.905,12.352-66.933,33.888C10.378,204.417,0,235.402,0,269.155
			c0,62.092,53.582,131.711,108.558,149.083l-3.588,68.696c-0.434,7.195,1.999,13.994,6.849,19.146
			c4.851,5.153,11.491,7.989,18.7,7.989h292.069c7.276,0,13.829-2.871,18.451-8.086c4.624-5.214,6.69-12.064,5.83-19.194
			l-7.445-71.248c0.093-0.134,0.192-0.262,0.276-0.404l0.136-0.228l93.043-194.3l1.321,0.853c3.474,2.243,7.986,3.48,12.705,3.48
			c4.801,0,9.381-1.273,12.896-3.584l0.263-0.173l45.642-37.578c4.021-2.757,6.309-6.751,6.293-11.008
			C611.982,168.239,609.55,164.176,605.33,161.449z M35.268,269.155c0-53.041,31.605-85.872,60.887-85.872
			c9.167,0,17.288,3.298,24.166,9.79l-9.844,188.456C72.981,364.581,35.268,311.974,35.268,269.155z"/>
	</g>
</g>
<g>
</g>
<g>
</g>
<g>
</g>
<g>
</g>
<g>
</g>
<g>
</g>
<g>
</g>
<g>
</g>
<g>
</g>
<g>
</g>
<g>
</g>
<g>
</g>
<g>
</g>
<g>
</g>
<g>
</g>
</svg>
